<?xml version="1.0" encoding="UTF-8" standalone="no"?>
<!DOCTYPE svg PUBLIC "-//W3C//DTD SVG 1.1//EN"
 "http://www.w3.org/Graphics/SVG/1.1/DTD/svg11.dtd">
<!-- Generated by graphviz version 9.0.0 (20230911.1827)
 -->
<!-- Pages: 1 -->
<svg width="650pt" height="398pt"
 viewBox="0.00 0.00 649.99 398.00" xmlns="http://www.w3.org/2000/svg" xmlns:xlink="http://www.w3.org/1999/xlink">
<g id="graph0" class="graph" transform="scale(1 1) rotate(0) translate(4 394)">
<polygon fill="white" stroke="none" points="-4,4 -4,-394 645.99,-394 645.99,4 -4,4"/>
<!-- 0 -->
<g id="node1" class="node">
<title>0</title>
<ellipse fill="none" stroke="black" cx="477" cy="-372" rx="101" ry="18"/>
<text text-anchor="middle" x="477" y="-366.95" font-family="Times,serif" font-size="14.00">Coord { row: 0, col: 1 }</text>
</g>
<!-- 1 -->
<g id="node2" class="node">
<title>1</title>
<ellipse fill="none" stroke="black" cx="477" cy="-283.5" rx="101" ry="18"/>
<text text-anchor="middle" x="477" y="-278.45" font-family="Times,serif" font-size="14.00">Coord { row: 4, col: 1 }</text>
</g>
<!-- 0&#45;&#45;1 -->
<g id="edge1" class="edge">
<title>0&#45;&#45;1</title>
<path fill="none" stroke="black" d="M477,-353.91C477,-338.84 477,-316.99 477,-301.85"/>
<text text-anchor="middle" x="480.37" y="-322.7" font-family="Times,serif" font-size="14.00">4</text>
</g>
<!-- 2 -->
<g id="node3" class="node">
<title>2</title>
<ellipse fill="none" stroke="black" cx="412" cy="-195" rx="101" ry="18"/>
<text text-anchor="middle" x="412" y="-189.95" font-family="Times,serif" font-size="14.00">Coord { row: 7, col: 4 }</text>
</g>
<!-- 1&#45;&#45;2 -->
<g id="edge2" class="edge">
<title>1&#45;&#45;2</title>
<path fill="none" stroke="black" d="M464.15,-265.41C452.76,-250.25 436.2,-228.21 424.81,-213.05"/>
<text text-anchor="middle" x="453.37" y="-234.2" font-family="Times,serif" font-size="14.00">6</text>
</g>
<!-- 4 -->
<g id="node5" class="node">
<title>4</title>
<ellipse fill="none" stroke="black" cx="541" cy="-18" rx="101" ry="18"/>
<text text-anchor="middle" x="541" y="-12.95" font-family="Times,serif" font-size="14.00">Coord { row: 4, col: 2 }</text>
</g>
<!-- 1&#45;&#45;4 -->
<g id="edge5" class="edge">
<title>1&#45;&#45;4</title>
<path fill="none" stroke="black" d="M491.38,-265.45C501.78,-252.09 515.17,-232.54 522,-213 543.71,-150.86 543.4,-71.16 541.99,-36.45"/>
<text text-anchor="middle" x="540.37" y="-145.7" font-family="Times,serif" font-size="14.00">1</text>
</g>
<!-- 3 -->
<g id="node4" class="node">
<title>3</title>
<ellipse fill="none" stroke="black" cx="412" cy="-106.5" rx="101" ry="18"/>
<text text-anchor="middle" x="412" y="-101.45" font-family="Times,serif" font-size="14.00">Coord { row: 4, col: 4 }</text>
</g>
<!-- 2&#45;&#45;3 -->
<g id="edge3" class="edge">
<title>2&#45;&#45;3</title>
<path fill="none" stroke="black" d="M412,-176.91C412,-161.84 412,-139.99 412,-124.85"/>
<text text-anchor="middle" x="415.37" y="-145.7" font-family="Times,serif" font-size="14.00">3</text>
</g>
<!-- 5 -->
<g id="node6" class="node">
<title>5</title>
<ellipse fill="none" stroke="black" cx="192" cy="-106.5" rx="101" ry="18"/>
<text text-anchor="middle" x="192" y="-101.45" font-family="Times,serif" font-size="14.00">Coord { row: 7, col: 7 }</text>
</g>
<!-- 2&#45;&#45;5 -->
<g id="edge6" class="edge">
<title>2&#45;&#45;5</title>
<path fill="none" stroke="black" d="M371.65,-178.13C332.07,-162.58 272.08,-138.99 232.46,-123.41"/>
<text text-anchor="middle" x="324.37" y="-145.7" font-family="Times,serif" font-size="14.00">3</text>
</g>
<!-- 3&#45;&#45;4 -->
<g id="edge4" class="edge">
<title>3&#45;&#45;4</title>
<path fill="none" stroke="black" d="M437.18,-88.62C459.91,-73.38 493.17,-51.07 515.88,-35.84"/>
<text text-anchor="middle" x="491.37" y="-57.2" font-family="Times,serif" font-size="14.00">2</text>
</g>
<!-- 6 -->
<g id="node7" class="node">
<title>6</title>
<ellipse fill="none" stroke="black" cx="321" cy="-18" rx="101" ry="18"/>
<text text-anchor="middle" x="321" y="-12.95" font-family="Times,serif" font-size="14.00">Coord { row: 4, col: 5 }</text>
</g>
<!-- 3&#45;&#45;6 -->
<g id="edge8" class="edge">
<title>3&#45;&#45;6</title>
<path fill="none" stroke="black" d="M394.02,-88.41C378.06,-73.25 354.88,-51.21 338.94,-36.05"/>
<text text-anchor="middle" x="377.37" y="-57.2" font-family="Times,serif" font-size="14.00">1</text>
</g>
<!-- 5&#45;&#45;6 -->
<g id="edge7" class="edge">
<title>5&#45;&#45;6</title>
<path fill="none" stroke="black" d="M217.18,-88.62C239.91,-73.38 273.17,-51.07 295.88,-35.84"/>
<text text-anchor="middle" x="271.37" y="-57.2" font-family="Times,serif" font-size="14.00">5</text>
</g>
<!-- 7 -->
<g id="node8" class="node">
<title>7</title>
<ellipse fill="none" stroke="black" cx="101" cy="-18" rx="101" ry="18"/>
<text text-anchor="middle" x="101" y="-12.95" font-family="Times,serif" font-size="14.00">Coord { row: 9, col: 7 }</text>
</g>
<!-- 5&#45;&#45;7 -->
<g id="edge9" class="edge">
<title>5&#45;&#45;7</title>
<path fill="none" stroke="black" d="M174.02,-88.41C158.06,-73.25 134.88,-51.21 118.94,-36.05"/>
<text text-anchor="middle" x="158.37" y="-57.2" font-family="Times,serif" font-size="14.00">2</text>
</g>
</g>
</svg>
